<?xml version="1.0" encoding="utf-8"?>
<!-- Svg Vector Icons : http://www.onlinewebfonts.com/icon -->
<!DOCTYPE svg PUBLIC "-//W3C//DTD SVG 1.1//EN" "http://www.w3.org/Graphics/SVG/1.1/DTD/svg11.dtd">
<svg version="1.1" xmlns="http://www.w3.org/2000/svg" xmlns:xlink="http://www.w3.org/1999/xlink" x="0px" y="0px" viewBox="0 0 1000 1000" enable-background="new 0 0 1000 1000" xml:space="preserve">
<metadata> Svg Vector Icons : http://www.onlinewebfonts.com/icon </metadata>
<g><path d="M730.9,316.8v62.3l57.5-63v-12.5c0-78.4-67-141.9-149.7-141.9h-0.4v58C690.3,224.8,730.9,266.3,730.9,316.8z"/><path d="M730.9,749.9c0,53.9-46.3,97.6-103.3,97.6H168.9c-57.1,0-103.3-43.7-103.3-97.6V316.8c0-50.5,40.6-92,92.7-97v-57.9c-82,0.7-148.3,64-148.3,141.9v459.4c0,78.4,67,141.9,149.7,141.9h479c82.7,0,149.7-63.5,149.7-141.9V604.7l-57.5,63V749.9z"/><path d="M250.9,291.5c22.5,0,40.8-18.3,40.8-40.8c0-11.8-5-22.4-13-29.8v-98.1c0-15.4-12.5-27.8-27.8-27.8c-15.4,0-27.8,12.4-27.8,27.8v98.1c-8,7.4-13,18-13,29.8C210.2,273.2,228.4,291.5,250.9,291.5z"/><path d="M399.2,291.5c22.5,0,40.8-18.3,40.8-40.8c0-11.8-5-22.4-13-29.8v-98.1c0-15.4-12.4-27.8-27.8-27.8c-15.4,0-27.8,12.4-27.8,27.8v98.1c-8,7.4-13,18-13,29.8C358.4,273.2,376.7,291.5,399.2,291.5z"/><path d="M547.5,291.5c22.5,0,40.8-18.3,40.8-40.8c0-11.8-5-22.4-13-29.8v-98.1c0-15.4-12.4-27.8-27.8-27.8s-27.8,12.4-27.8,27.8v98.1c-8,7.4-13,18-13,29.8C506.7,273.2,524.9,291.5,547.5,291.5z"/><path d="M544.7,662.2c-8.9,11.9-19.4,22.5-31.2,31.5h145c8.3,0,15-7.1,15-15.8c0-8.7-6.7-15.8-15-15.8H544.7z"/><path d="M658.5,452.7h-136c10.5,9.2,19.6,19.8,27.3,31.5h108.6c8.3,0,15-7.1,15-15.8C673.5,459.8,666.8,452.7,658.5,452.7z"/><path d="M138.1,662.2c-8.3,0-15,7.1-15,15.8c0,8.7,6.7,15.8,15,15.8h187.6c-11.8-9-22.4-19.6-31.2-31.5H138.1z"/><path d="M123.1,468.5c0,8.7,6.7,15.8,15,15.8h151.3c7.7-11.7,16.9-22.3,27.3-31.5H138.1C129.8,452.7,123.1,459.8,123.1,468.5z"/><path d="M419.6,695.5c69.6,0,126-56.4,126-126c0-69.6-56.4-126-126-126c-69.6,0-126,56.4-126,126C293.6,639.1,350,695.5,419.6,695.5z M359.9,555.5l49.1,43.7l73.1-82.5c7.8-8.7,21.1-9.5,29.8-1.8c8.7,7.7,9.4,21.1,1.7,29.8l-86.3,97.4c-0.2,0.3-0.4,0.7-0.7,1c-7.7,8.7-21.1,9.5-29.8,1.8l-64.8-57.7c-8.7-7.8-9.5-21.1-1.8-29.9C337.8,548.6,351.1,547.8,359.9,555.5z"/><path d="M657.8,507.1l-41.9,137.4l133.8-54L657.8,507.1z"/><path d="M892.5,248.4c-29.1,32-26.4,29.1-26.4,29.1l92,83.4c0,0,0,0,0,0c0.3-0.4,3.5-3.8,26.4-29.1C1013.2,300.3,921.6,216.4,892.5,248.4z"/><path d="M765.3,573.5l-92-83.4l177.2-195.3l92,83.4L765.3,573.5z"/></g>
</svg>